# xmcd CD database file
#
# Track frame offsets:
#	150
#	14137
#	27632
#	41342
#	57250
#	70262
#	87130
#	101760
#	114840
#	127090
#	145172
#	157807
#	172120
#	187780
#	198525
#	213212
#	230117
#	243197
#	255675
#	270632
#
# Disc length: 3757 seconds
#
# Revision: 3
# Processed by: cddbd v1.5.2PL0 Copyright (c) Steve Scherf et al.
# Submitted via: CDex 1.70beta2
#
DISCID=1c0eab14
DTITLE=Eartha Kitt - My Heart Belongs to Daddy
DYEAR=1998
DGENRE=Blues
TTITLE0=Let's Do It (Cole Porter)
TTITLE1=C'est Si Bon (Betti-Hornez-Seelan)
TTITLE2=My Heart Belongs To Daddy (Cole Porter)
TTITLE3=I Want To Be Evil (Judson-Taylor)
TTITLE4=Just An Old Fashioned Girl (Fisher)
TTITLE5=Monotonous (J.Carroll)
TTITLE6=Beale Street Blues (Handy)
TTITLE7=Lullaby of Birdland (G.Shearing)
TTITLE8=Under the Bridges of Paris (Cochran-Rodor-Scott)
TTITLE9=Thursday's Child (Boyd-Grant)
TTITLE10=St. Louis Blues (Handy)
TTITLE11=Uska Dara - A Turkish Tale (Tradizionale)
TTITLE12=The Memphis Blues (Handy)
TTITLE13=Lazy Afternoon (Latouche-Morris)
TTITLE14=Careless Love (Handy-Koening-Williams)
TTITLE15=Lilac Wine (J.Shelton)
TTITLE16=April in Portugal (Ferrado-Larue)
TTITLE17=Apres Moi (Bennet)
TTITLE18=The Day The Circus Left Town (Leigh-Thomas)
TTITLE19=If I Can't Take It With Me
EXTD=YEAR: 1998
EXTT0=
EXTT1=
EXTT2=
EXTT3=
EXTT4=
EXTT5=
EXTT6=
EXTT7=
EXTT8=
EXTT9=
EXTT10=
EXTT11=
EXTT12=
EXTT13=
EXTT14=
EXTT15=
EXTT16=
EXTT17=
EXTT18=
EXTT19=
PLAYORDER=
